<svg width="64" height="64" viewBox="0 0 64 64" fill="none" xmlns="http://www.w3.org/2000/svg">
<g clip-path="url(#clip0_48_3609)">
<path d="M41.6687 47.1336L6.87889 57.9111C5.3703 58.3779 3.95507 56.9662 4.42302 55.4615L15.228 20.7598L41.6687 47.1336Z" fill="#FFEBAB"/>
<path d="M42.7363 46.5205C45.2721 43.9912 41.3075 35.9358 33.8812 28.5283C26.4549 21.1208 18.3791 17.1663 15.8433 19.6956C13.3076 22.225 17.2722 30.2803 24.6985 37.6878C32.1248 45.0953 40.2006 49.0498 42.7363 46.5205Z" fill="#EAD8AD"/>
<path d="M41.5176 45.3007C40.5248 46.2899 38.2613 46.0139 35.3033 44.5432C32.1939 42.9964 28.661 40.3287 25.3557 37.0318C22.0505 33.7361 19.3772 30.2121 17.8264 27.1094C16.352 24.1601 16.0742 21.9012 17.0659 20.9121C18.0576 19.9229 20.3222 20.2 23.2801 21.6707C26.3896 23.2175 29.9225 25.884 33.2277 29.1809C36.533 32.4778 39.2063 36.0018 40.757 39.1033C42.2315 42.0527 42.5093 44.3115 41.5176 45.3007Z" fill="url(#paint0_linear_48_3609)"/>
<path d="M36.6749 48.6805L29.9414 50.7667C28.4476 50.2341 26.9777 49.5947 25.5363 48.8497C22.3984 47.2279 19.379 45.0997 16.5622 42.5251C16.1045 42.1072 15.6047 41.6313 15.0718 41.0998C13.6953 39.7268 12.1081 37.9813 10.5176 35.8825L11.9021 31.4375C14.4297 35.2284 17.1588 38.0505 19.0704 39.7961C24.4479 44.7135 30.3638 47.6981 36.6749 48.6805Z" fill="#FF5624"/>
<path d="M25.4455 52.161L20.1364 53.8055C17.101 52.203 14.1794 50.1259 11.448 47.6285C10.9903 47.2106 10.4905 46.7348 9.95765 46.2033C9.32916 45.5764 8.65855 44.8734 7.96289 44.0943L9.26654 39.9082C10.9937 42.0421 12.664 43.7184 13.9563 44.9006C17.5587 48.1964 21.4036 50.6233 25.4466 52.161H25.4455Z" fill="#FF5624"/>
<path d="M15.8328 55.1375L11.1726 56.5809C9.50692 55.4407 7.88789 54.154 6.33148 52.731C6.07189 52.4925 5.79864 52.2369 5.51172 51.9621L6.75616 47.9668C7.51331 48.7561 8.21921 49.4352 8.83859 50.0019C11.0804 52.0518 13.4145 53.7656 15.8316 55.1375H15.8328Z" fill="#FF5624"/>
<path d="M24.5713 25.1559L22.9238 23.5126C25.5402 20.9028 27.0352 17.5492 27.3676 13.5459C27.6204 10.5 27.0693 8.20142 27.0636 8.17871L29.3259 7.62109C29.3521 7.72671 29.9658 10.2468 29.696 13.6515C29.3373 18.1908 27.5646 22.1691 24.5702 25.1559H24.5713Z" fill="#F44545"/>
<path d="M37.669 39.8641L36.0215 38.2208C39.247 35.0034 43.8115 33.384 49.2208 33.5395C53.2365 33.6554 56.2913 34.6957 56.4199 34.7399L55.6582 36.9363L56.0396 35.8381L55.6594 36.9363C55.6309 36.9261 52.7617 35.9563 49.0899 35.8609C44.2988 35.7359 40.4573 37.0828 37.669 39.8641Z" fill="#88A7FF"/>
<path d="M29.6094 22.811C30.4542 21.4107 31.5643 21.045 32.3749 20.7781C33.0615 20.5521 33.4748 20.4158 33.8744 19.7549C34.2729 19.0939 34.2 18.6646 34.0782 17.9537C33.9348 17.1144 33.7378 15.9651 34.5826 14.5648C35.4274 13.1645 36.5375 12.7988 37.3482 12.532C38.0347 12.306 38.448 12.1697 38.8476 11.5076C39.2461 10.8455 39.1733 10.4173 39.0515 9.7064C38.908 8.86713 38.711 7.71669 39.5558 6.31641L41.5529 7.51454C41.1544 8.17664 41.2272 8.60479 41.3491 9.31572C41.4925 10.155 41.6895 11.3054 40.8447 12.7057C39.9999 14.106 38.8898 14.4717 38.0791 14.7386C37.3926 14.9646 36.9793 15.1009 36.5796 15.763C36.1811 16.4239 36.254 16.8532 36.3758 17.563C36.5193 18.4023 36.7163 19.5516 35.8715 20.9519C35.0266 22.3521 33.9165 22.7178 33.1059 22.9847C32.4193 23.2107 32.006 23.347 31.6064 24.008L29.6094 22.8098V22.811Z" fill="#FF4901"/>
<path d="M39.2142 29.038L38.0723 27.0119C39.5444 26.1874 40.7274 26.4236 41.5916 26.5974C42.3407 26.7473 42.7916 26.8382 43.51 26.435C44.2285 26.033 44.3856 25.6003 44.6463 24.8848C44.9469 24.058 45.3591 22.9269 46.8312 22.1012C48.3034 21.2756 49.4863 21.513 50.3505 21.6867C51.0997 21.8366 51.5517 21.9275 52.269 21.5243C52.9874 21.1212 53.1445 20.6896 53.4053 19.973C53.7058 19.1462 54.118 18.014 55.5901 17.1895L56.7321 19.2155C56.0137 19.6187 55.8566 20.0502 55.5958 20.7668C55.2953 21.5936 54.8831 22.7259 53.4109 23.5504C51.9388 24.3749 50.7558 24.1387 49.8917 23.9649C49.1425 23.815 48.6905 23.7241 47.9732 24.1273C47.2548 24.5293 47.0976 24.962 46.8369 25.6775C46.5363 26.5043 46.1242 27.6354 44.652 28.461C43.181 29.2855 41.9969 29.0482 41.1327 28.8756C40.3835 28.7256 39.9327 28.6348 39.2142 29.038Z" fill="#9B6AEA"/>
<path d="M53.9812 29.1947C54.6244 29.1947 55.1459 28.6745 55.1459 28.0329C55.1459 27.3912 54.6244 26.8711 53.9812 26.8711C53.3379 26.8711 52.8164 27.3912 52.8164 28.0329C52.8164 28.6745 53.3379 29.1947 53.9812 29.1947Z" fill="#9B6AEA"/>
<path d="M48.7937 42.7513C49.4369 42.7513 49.9584 42.2312 49.9584 41.5895C49.9584 40.9479 49.4369 40.4277 48.7937 40.4277C48.1504 40.4277 47.6289 40.9479 47.6289 41.5895C47.6289 42.2312 48.1504 42.7513 48.7937 42.7513Z" fill="#F44545"/>
<path d="M59.4987 32.892C60.142 32.892 60.6635 32.3718 60.6635 31.7302C60.6635 31.0885 60.142 30.5684 59.4987 30.5684C58.8555 30.5684 58.334 31.0885 58.334 31.7302C58.334 32.3718 58.8555 32.892 59.4987 32.892Z" fill="#2252FF"/>
<path d="M50.028 16.8705C50.6713 16.8705 51.1928 16.3503 51.1928 15.7087C51.1928 15.067 50.6713 14.5469 50.028 14.5469C49.3848 14.5469 48.8633 15.067 48.8633 15.7087C48.8633 16.3503 49.3848 16.8705 50.028 16.8705Z" fill="#FF4901"/>
<path d="M32.8913 8.32359C33.5346 8.32359 34.0561 7.80344 34.0561 7.1618C34.0561 6.52015 33.5346 6 32.8913 6C32.248 6 31.7266 6.52015 31.7266 7.1618C31.7266 7.80344 32.248 8.32359 32.8913 8.32359Z" fill="#2252FF"/>
<path d="M40.9655 18.347C41.6088 18.347 42.1303 17.8269 42.1303 17.1852C42.1303 16.5436 41.6088 16.0234 40.9655 16.0234C40.3223 16.0234 39.8008 16.5436 39.8008 17.1852C39.8008 17.8269 40.3223 18.347 40.9655 18.347Z" fill="#FCD031"/>
<path d="M32.1511 32.7279C32.7943 32.7279 33.3158 32.2077 33.3158 31.5661C33.3158 30.9245 32.7943 30.4043 32.1511 30.4043C31.5078 30.4043 30.9863 30.9245 30.9863 31.5661C30.9863 32.2077 31.5078 32.7279 32.1511 32.7279Z" fill="#FF4901"/>
<path d="M19.9597 13.8314C20.6029 13.8314 21.1244 13.3113 21.1244 12.6696C21.1244 12.028 20.6029 11.5078 19.9597 11.5078C19.3164 11.5078 18.7949 12.028 18.7949 12.6696C18.7949 13.3113 19.3164 13.8314 19.9597 13.8314Z" fill="#9B6AEA"/>
</g>
<defs>
<linearGradient id="paint0_linear_48_3609" x1="25.4685" y1="37.1749" x2="33.0955" y2="29.0196" gradientUnits="userSpaceOnUse">
<stop stop-color="#765246"/>
<stop offset="1" stop-color="#513C35"/>
</linearGradient>
<clipPath id="clip0_48_3609">
<rect width="56.3337" height="52.0003" fill="white" transform="translate(4.33398 6)"/>
</clipPath>
</defs>
</svg>
