<svg width="24" height="24" viewBox="0 0 24 24" fill="none" xmlns="http://www.w3.org/2000/svg">
<path d="M15.9121 14.5H20.5C21.0523 14.5 21.5 14.0523 21.5 13.5V4.49931C21.5 3.94703 21.0523 3.49931 20.5 3.49931H15.9121" stroke="black" stroke-width="2"/>
<path d="M8.20043 3.5H16.5L16.499 14.2363C16.499 14.4097 16.4586 14.5808 16.3811 14.7359L13.7764 19.9471C13.607 20.2859 13.2607 20.5 12.8819 20.5H11.6805C11.0625 20.5 10.5925 19.9451 10.6941 19.3356L11.3059 15.6644C11.4075 15.0549 10.9375 14.5 10.3195 14.5H4.9277C4.23374 14.5 3.75075 13.8104 3.98791 13.1583L7.26063 4.15826C7.40434 3.76307 7.77992 3.5 8.20043 3.5Z" stroke="black" stroke-width="2"/>
</svg>
