<svg width="24" height="24" viewBox="0 0 24 24" fill="none" xmlns="http://www.w3.org/2000/svg">
<path d="M9.08789 9.5H4.5C3.94772 9.5 3.5 9.94771 3.5 10.5V19.5007C3.5 20.053 3.94772 20.5007 4.5 20.5007H9.08789" stroke="black" stroke-width="2"/>
<path d="M16.7996 20.5H8.5L8.50099 9.76371C8.50101 9.59028 8.54138 9.41924 8.61892 9.26412L11.2236 4.05291C11.393 3.71406 11.7393 3.5 12.1181 3.5H13.3195C13.9375 3.5 14.4075 4.05487 14.3059 4.6644L13.6941 8.3356C13.5925 8.94513 14.0625 9.5 14.6805 9.5H20.0723C20.7663 9.5 21.2493 10.1896 21.0121 10.8417L17.7394 19.8417C17.5957 20.2369 17.2201 20.5 16.7996 20.5Z" stroke="black" stroke-width="2"/>
</svg>
