<svg width="24" height="24" viewBox="0 0 24 24" fill="none" xmlns="http://www.w3.org/2000/svg">
<path fill-rule="evenodd" clip-rule="evenodd" d="M4.26999 18.6149C4.51458 19.0385 5.02974 19.223 5.48767 19.051L6.53282 18.6584C7.8143 18.177 9.18976 19.0964 9.23504 20.4645L9.25385 21.0331C9.27169 21.5722 9.71389 22 10.2533 22H13.747C14.2858 22 14.7277 21.5732 14.7464 21.0349L14.7666 20.4558C14.8145 19.0831 16.2002 18.166 17.4825 18.6585L18.4999 19.0492C18.9591 19.2256 19.4785 19.0418 19.7244 18.6157L21.5859 15.3915C21.8341 14.9617 21.7294 14.4148 21.3401 14.107L20.6585 13.5682C19.6455 12.7675 19.6455 11.231 20.6585 10.4303L21.3401 9.89149C21.7294 9.58368 21.8341 9.03685 21.5859 8.607L19.724 5.38208C19.4782 4.95634 18.9595 4.7724 18.5004 4.94821L17.4757 5.34063C16.1874 5.83399 14.7982 4.90571 14.7611 3.52668L14.7462 2.97311C14.7317 2.4315 14.2884 2 13.7466 2H10.2538C9.71125 2 9.26769 2.43257 9.25407 2.9749L9.24044 3.51787C9.20594 4.89226 7.82705 5.82284 6.53957 5.34061L5.48718 4.94644C5.02943 4.77499 4.51481 4.95958 4.2704 5.38291L2.40958 8.60595C2.16273 9.03351 2.26485 9.57723 2.65001 9.88609L3.33946 10.439C4.33787 11.2396 4.33787 12.7589 3.33947 13.5595L2.65001 14.1124C2.26485 14.4213 2.16273 14.965 2.40958 15.3926L4.26999 18.6149Z" stroke="black" stroke-width="2"/>
<circle cx="12" cy="12" r="4" stroke="black" stroke-width="2"/>
</svg>
