<svg width="33" height="32" viewBox="0 0 33 32" fill="none" xmlns="http://www.w3.org/2000/svg">
<rect x="0.121094" width="32" height="32" rx="16" fill="black"/>
<path d="M23.8282 8.31641C23.9802 8.31641 24.1035 8.43963 24.1035 8.59164V19.4747C24.1035 19.6267 23.9802 19.75 23.8282 19.75H20.2332C20.0812 19.75 19.958 19.6267 19.958 19.4747V14.0493L17.9788 19.5676C17.9396 19.677 17.8359 19.75 17.7197 19.75H14.5431C14.4269 19.75 14.3233 19.677 14.2841 19.5676L12.3048 14.0493V19.4747C12.3048 19.6267 12.1816 19.75 12.0296 19.75H8.41586C8.26385 19.75 8.14062 19.6267 8.14062 19.4747V8.59164C8.14062 8.43963 8.26385 8.31641 8.41585 8.31641H13.0609C13.1712 8.31641 13.2708 8.38224 13.3141 8.48369L15.9125 14.5782C16.008 14.8024 16.3263 14.8009 16.4198 14.5759L18.9496 8.48605C18.9923 8.38334 19.0926 8.31641 19.2038 8.31641H23.8282Z" fill="white"/>
<rect x="8.14062" y="21.5254" width="12.2957" height="2.15727" rx="0.27523" fill="white"/>
<rect x="21.9453" y="21.5254" width="2.15714" height="2.15727" rx="0.27523" fill="#FF5624"/>
</svg>
