<svg width="40" height="40" viewBox="0 0 40 40" fill="none" xmlns="http://www.w3.org/2000/svg">
<g filter="url(#filter0_d_213_5283)">
<rect x="4" width="32" height="32" rx="16" fill="black" shape-rendering="crispEdges"/>
<path d="M27.7071 8.31641C27.8591 8.31641 27.9824 8.43963 27.9824 8.59164V19.4747C27.9824 19.6267 27.8591 19.75 27.7071 19.75H24.1121C23.9601 19.75 23.8369 19.6267 23.8369 19.4747V14.0493L21.8577 19.5676C21.8185 19.677 21.7148 19.75 21.5986 19.75H18.422C18.3058 19.75 18.2022 19.677 18.163 19.5676L16.1838 14.0493V19.4747C16.1838 19.6267 16.0605 19.75 15.9085 19.75H12.2948C12.1428 19.75 12.0195 19.6267 12.0195 19.4747V8.59164C12.0195 8.43963 12.1428 8.31641 12.2948 8.31641H16.9398C17.0501 8.31641 17.1497 8.38224 17.193 8.48369L19.7914 14.5782C19.887 14.8024 20.2052 14.8009 20.2987 14.5759L22.8286 8.48605C22.8712 8.38334 22.9715 8.31641 23.0827 8.31641H27.7071Z" fill="white"/>
<rect x="12.0195" y="21.5254" width="12.2957" height="2.15727" rx="0.27523" fill="white"/>
<rect x="25.8242" y="21.5254" width="2.15714" height="2.15727" rx="0.27523" fill="#FF5624"/>
</g>
<defs>
<filter id="filter0_d_213_5283" x="0" y="0" width="40" height="40" filterUnits="userSpaceOnUse" color-interpolation-filters="sRGB">
<feFlood flood-opacity="0" result="BackgroundImageFix"/>
<feColorMatrix in="SourceAlpha" type="matrix" values="0 0 0 0 0 0 0 0 0 0 0 0 0 0 0 0 0 0 127 0" result="hardAlpha"/>
<feOffset dy="4"/>
<feGaussianBlur stdDeviation="2"/>
<feComposite in2="hardAlpha" operator="out"/>
<feColorMatrix type="matrix" values="0 0 0 0 0 0 0 0 0 0 0 0 0 0 0 0 0 0 0.25 0"/>
<feBlend mode="normal" in2="BackgroundImageFix" result="effect1_dropShadow_213_5283"/>
<feBlend mode="normal" in="SourceGraphic" in2="effect1_dropShadow_213_5283" result="shape"/>
</filter>
</defs>
</svg>
