<svg width="48" height="46" viewBox="0 0 48 46" fill="none" xmlns="http://www.w3.org/2000/svg">
<path d="M46.3988 0.599609C46.8407 0.599609 47.1988 0.957782 47.1988 1.39961V33.032C47.1988 33.4739 46.8407 33.832 46.3988 33.832H35.949C35.5072 33.832 35.149 33.4739 35.149 33.032V17.2628L29.396 33.3021C29.2819 33.62 28.9806 33.832 28.6429 33.832H19.4093C19.0716 33.832 18.7702 33.62 18.6562 33.3021L12.9032 17.2628V33.032C12.9032 33.4739 12.545 33.832 12.1032 33.832H1.59883C1.157 33.832 0.798828 33.4739 0.798828 33.032V1.39961C0.798828 0.95778 1.157 0.599609 1.59883 0.599609H15.1008C15.4214 0.599609 15.711 0.790962 15.8367 1.08584L23.3897 18.8001C23.6675 19.4517 24.5926 19.4474 24.8643 18.7932L32.218 1.09269C32.342 0.79416 32.6335 0.599609 32.9567 0.599609H46.3988Z" fill="black"/>
<rect x="0.798828" y="39" width="35.7405" height="6.27027" rx="0.8" fill="black"/>
<rect x="40.9277" y="39" width="6.27027" height="6.27027" rx="0.8" fill="#FF5624"/>
</svg>
