<svg width="60" height="60" viewBox="0 0 60 60" fill="none" xmlns="http://www.w3.org/2000/svg">
<path d="M58 2C58.5523 2 59 2.44772 59 3V42.5405C59 43.0928 58.5523 43.5405 58 43.5405H44.9377C44.3854 43.5405 43.9377 43.0928 43.9377 42.5405V22.8289L36.7464 42.8782C36.6039 43.2755 36.2272 43.5405 35.8051 43.5405H24.263C23.8409 43.5405 23.4643 43.2755 23.3218 42.8782L16.1304 22.8289V42.5405C16.1304 43.0928 15.6827 43.5405 15.1304 43.5405H2C1.44772 43.5405 1 43.0928 1 42.5405V3C1 2.44772 1.44772 2 2 2H18.8775C19.2782 2 19.6402 2.23919 19.7973 2.60779L29.2385 24.7506C29.5858 25.5651 30.7422 25.5597 31.0819 24.742L40.2739 2.61635C40.4289 2.24319 40.7933 2 41.1974 2H58Z" fill="black"/>
<rect x="1" y="50" width="44.6757" height="7.83784" rx="1" fill="black"/>
<rect x="51.1602" y="50" width="7.83784" height="7.83784" rx="1" fill="#FF5624"/>
</svg>
