<svg width="160" height="188" viewBox="0 0 160 188" fill="none" xmlns="http://www.w3.org/2000/svg">
<g filter="url(#filter0_d_213_5016)">
<path d="M44.9512 6.85938V21H42.002V9.65234H41.9238L38.6816 11.6836V9.08594L42.1777 6.85938H44.9512ZM47.998 18.5V16.1758L53.9746 6.85938H57.666V16.1367H59.4629V18.5H57.666V21H54.873V18.5H47.998ZM50.9668 16.1367H54.9121V10.082H54.7754L50.9668 16.0195V16.1367ZM66.8652 21.1953C63.3301 21.1953 61.1816 18.5586 61.1816 13.9297C61.1816 9.30078 63.3301 6.66406 66.8652 6.66406C70.4004 6.66406 72.5488 9.32031 72.5488 13.9297C72.5488 18.5781 70.4004 21.1953 66.8652 21.1953ZM66.8652 18.7734C68.5059 18.7734 69.5605 17.1914 69.541 13.9297C69.541 10.707 68.5059 9.06641 66.8652 9.06641C65.2246 9.06641 64.1895 10.707 64.1895 13.9297C64.1699 17.1914 65.2246 18.7734 66.8652 18.7734ZM76.7871 19.0078L74.9902 17.2305L78.2324 14.0078L74.9902 10.7852L76.7871 8.98828L80.0098 12.2109L83.2324 8.98828L85.0293 10.7852L81.7871 14.0078L85.0293 17.2305L83.2324 19.0078L80.0098 15.7852L76.7871 19.0078ZM93.7402 6.85938V21H90.791V9.65234H90.7129L87.4707 11.6836V9.08594L90.9668 6.85938H93.7402ZM96.7871 18.5V16.1758L102.764 6.85938H106.455V16.1367H108.252V18.5H106.455V21H103.662V18.5H96.7871ZM99.7559 16.1367H103.701V10.082H103.564L99.7559 16.0195V16.1367ZM115.654 21.1953C112.119 21.1953 109.971 18.5586 109.971 13.9297C109.971 9.30078 112.119 6.66406 115.654 6.66406C119.189 6.66406 121.338 9.32031 121.338 13.9297C121.338 18.5781 119.189 21.1953 115.654 21.1953ZM115.654 18.7734C117.295 18.7734 118.35 17.1914 118.33 13.9297C118.33 10.707 117.295 9.06641 115.654 9.06641C114.014 9.06641 112.979 10.707 112.979 13.9297C112.959 17.1914 114.014 18.7734 115.654 18.7734Z" fill="#525252"/>
<path d="M148.108 41.8945C149.153 41.8945 150 42.7416 150 43.7864V140.273C150 141.318 149.153 142.165 148.108 142.165H115.535C114.49 142.165 113.643 141.318 113.643 140.273V92.1713L96.1604 140.912C95.8908 141.663 95.1782 142.165 94.3796 142.165H65.7849C64.9863 142.165 64.2737 141.663 64.0041 140.912L46.5217 92.1713V140.273C46.5217 141.318 45.6747 142.165 44.6298 142.165H11.8919C10.847 142.165 10 141.318 10 140.273V43.7864C10 42.7416 10.847 41.8945 11.8919 41.8945H53.4973C54.2554 41.8945 54.9403 42.3471 55.2376 43.0444L78.6483 97.9503C79.3053 99.4912 81.4931 99.4811 82.1357 97.9341L104.933 43.0606C105.226 42.3546 105.915 41.8945 106.68 41.8945H148.108Z" fill="white"/>
<rect x="10" y="158.246" width="107.838" height="18.9189" rx="1.89189" fill="white"/>
<rect x="131.078" y="158.246" width="18.9189" height="18.9189" rx="1.89189" fill="#FF5624"/>
</g>
<defs>
<filter id="filter0_d_213_5016" x="-4" y="0" width="168" height="188" filterUnits="userSpaceOnUse" color-interpolation-filters="sRGB">
<feFlood flood-opacity="0" result="BackgroundImageFix"/>
<feColorMatrix in="SourceAlpha" type="matrix" values="0 0 0 0 0 0 0 0 0 0 0 0 0 0 0 0 0 0 127 0" result="hardAlpha"/>
<feOffset dy="4"/>
<feGaussianBlur stdDeviation="2"/>
<feComposite in2="hardAlpha" operator="out"/>
<feColorMatrix type="matrix" values="0 0 0 0 0 0 0 0 0 0 0 0 0 0 0 0 0 0 0.25 0"/>
<feBlend mode="normal" in2="BackgroundImageFix" result="effect1_dropShadow_213_5016"/>
<feBlend mode="normal" in="SourceGraphic" in2="effect1_dropShadow_213_5016" result="shape"/>
</filter>
</defs>
</svg>
