<svg width="140" height="140" viewBox="0 0 140 140" fill="none" xmlns="http://www.w3.org/2000/svg">
<path d="M138.108 1.89453C139.153 1.89453 140 2.74156 140 3.78642V100.273C140 101.318 139.153 102.165 138.108 102.165H105.535C104.49 102.165 103.643 101.318 103.643 100.273V52.1713L86.1604 100.912C85.8908 101.663 85.1782 102.165 84.3796 102.165H55.7849C54.9863 102.165 54.2737 101.663 54.0041 100.912L36.5217 52.1713V100.273C36.5217 101.318 35.6747 102.165 34.6298 102.165H1.89189C0.847029 102.165 0 101.318 0 100.273V3.78642C0 2.74156 0.847029 1.89453 1.89189 1.89453H43.4973C44.2554 1.89453 44.9403 2.34705 45.2376 3.0444L68.6483 57.9503C69.3053 59.4912 71.4931 59.4811 72.1357 57.9341L94.9327 3.06059C95.226 2.35462 95.9154 1.89453 96.6798 1.89453H138.108Z" fill="white"/>
<rect y="118.246" width="107.838" height="18.9189" rx="1.89189" fill="white"/>
<rect x="121.078" y="118.246" width="18.9189" height="18.9189" rx="1.89189" fill="#FF5624"/>
</svg>
